<svg width="95" height="47" viewBox="0 0 95 47" fill="none" xmlns="http://www.w3.org/2000/svg">
<path d="M13.8597 0.0315008V15.4662C13.8597 17.6081 13.2402 19.2776 12.0012 20.4746C10.7623 21.6505 9.10331 22.2385 7.02435 22.2385C4.9244 22.2385 3.22343 21.6295 1.92146 20.4116C0.640486 19.1936 0 17.4926 0 15.3087H4.40991C4.43091 16.2537 4.6514 16.9886 5.07139 17.5136C5.51238 18.0386 6.14237 18.3011 6.96135 18.3011C7.75933 18.3011 8.36832 18.0491 8.78831 17.5451C9.2083 17.0411 9.4183 16.3482 9.4183 15.4662V0.0315008H13.8597Z" fill="black"/>
<path d="M32.4856 17.8286H23.7288L22.2799 22.018H17.6495L25.5558 0H30.6902L38.5965 22.018H33.9346L32.4856 17.8286ZM31.2887 14.3007L28.1072 5.10289L24.9258 14.3007H31.2887Z" fill="black"/>
<path d="M54.0255 10.7413C55.2645 10.9723 56.283 11.5918 57.081 12.5997C57.8789 13.6077 58.2779 14.7627 58.2779 16.0647C58.2779 17.2406 57.9839 18.2801 57.396 19.1831C56.829 20.0651 55.9995 20.7581 54.9075 21.262C53.8155 21.766 52.5241 22.018 51.0331 22.018H41.5518V0.0315008H50.6236C52.1146 0.0315008 53.3955 0.272996 54.4665 0.755985C55.5585 1.23898 56.3775 1.91096 56.9235 2.77194C57.4905 3.63292 57.7739 4.6094 57.7739 5.70138C57.7739 6.98235 57.4275 8.05333 56.7345 8.91431C56.0625 9.77529 55.1595 10.3843 54.0255 10.7413ZM45.9617 9.10331H49.9936C51.0436 9.10331 51.8521 8.87231 52.4191 8.41032C52.9861 7.92733 53.2695 7.24485 53.2695 6.36287C53.2695 5.48088 52.9861 4.7984 52.4191 4.31541C51.8521 3.83242 51.0436 3.59092 49.9936 3.59092H45.9617V9.10331ZM50.4031 18.4271C51.4741 18.4271 52.3036 18.1751 52.8916 17.6711C53.5005 17.1671 53.805 16.4531 53.805 15.5292C53.805 14.5842 53.49 13.8492 52.8601 13.3242C52.2301 12.7782 51.3796 12.5052 50.3086 12.5052H45.9617V18.4271H50.4031Z" fill="black"/>
<path d="M66.2025 3.59092V9.10331H73.6048V12.5997H66.2025V18.4271H74.5498V22.018H61.7926V0H74.5498V3.59092H66.2025Z" fill="black"/>
<path d="M89.8971 22.018L85.0462 13.4502H82.9673V22.018H78.5574V0.0315008H86.8102C88.5111 0.0315008 89.9601 0.335994 91.1571 0.944981C92.3541 1.53297 93.2465 2.34145 93.8345 3.37043C94.4435 4.37841 94.748 5.51238 94.748 6.77236C94.748 8.22132 94.328 9.5338 93.488 10.7098C92.648 11.8647 91.3986 12.6627 89.7396 13.1037L95 22.018H89.8971ZM82.9673 10.1428H86.6527C87.8496 10.1428 88.7421 9.85929 89.3301 9.2923C89.9181 8.70432 90.2121 7.89583 90.2121 6.86685C90.2121 5.85888 89.9181 5.08189 89.3301 4.5359C88.7421 3.96892 87.8496 3.68542 86.6527 3.68542H82.9673V10.1428Z" fill="black"/>
<path d="M13.6544 26.7706V46.1902H13.1027V36.4528H0.993098V46.1902H0.441406V26.7706H0.993098V35.9563H13.1027V26.7706H13.6544Z" fill="black"/>
<path d="M25.3059 46.4108C23.5221 46.4108 21.9222 45.9971 20.5062 45.1695C19.1086 44.3236 18.0144 43.1467 17.2236 41.6387C16.4328 40.1307 16.0375 38.4205 16.0375 36.508C16.0375 34.5954 16.4328 32.8852 17.2236 31.3772C18.0144 29.8693 19.1086 28.7015 20.5062 27.874C21.9222 27.0281 23.5221 26.6051 25.3059 26.6051C27.0897 26.6051 28.6804 27.0281 30.078 27.874C31.494 28.7015 32.5974 29.8693 33.3882 31.3772C34.1789 32.8852 34.5743 34.5954 34.5743 36.508C34.5743 38.4205 34.1789 40.1307 33.3882 41.6387C32.5974 43.1467 31.494 44.3236 30.078 45.1695C28.6804 45.9971 27.0897 46.4108 25.3059 46.4108ZM25.3059 45.9143C26.9242 45.9143 28.3954 45.5373 29.7194 44.7833C31.0435 44.011 32.0825 42.9168 32.8365 41.5008C33.6088 40.0664 33.995 38.4021 33.995 36.508C33.995 34.6138 33.6088 32.9587 32.8365 31.5427C32.0825 30.1083 31.0435 29.0142 29.7194 28.2602C28.3954 27.4878 26.9242 27.1016 25.3059 27.1016C23.6876 27.1016 22.2164 27.4878 20.8924 28.2602C19.5683 29.0142 18.5201 30.1083 17.7477 31.5427C16.9937 32.9587 16.6167 34.6138 16.6167 36.508C16.6167 38.4021 16.9937 40.0664 17.7477 41.5008C18.5201 42.9168 19.5683 44.011 20.8924 44.7833C22.2164 45.5373 23.6876 45.9143 25.3059 45.9143Z" fill="black"/>
<path d="M42.2426 46.3832C41.0105 46.3832 39.9347 46.1626 39.0152 45.7212C38.1141 45.2799 37.4153 44.7006 36.9188 43.9834C36.4223 43.2478 36.128 42.457 36.0361 41.6111H36.5878C36.6797 42.2548 36.9096 42.8984 37.2774 43.542C37.6636 44.1857 38.2612 44.7374 39.0704 45.1971C39.8979 45.6569 40.9553 45.8867 42.2426 45.8867C43.2724 45.8867 44.1827 45.6936 44.9735 45.3074C45.7642 44.9029 46.3711 44.3696 46.7941 43.7075C47.217 43.0455 47.4285 42.3099 47.4285 41.5008C47.4285 40.4526 47.1894 39.625 46.7113 39.0182C46.2332 38.3929 45.6355 37.9332 44.9183 37.6389C44.2195 37.3447 43.2724 37.0413 42.0771 36.7286C40.8266 36.3976 39.8244 36.0666 39.0704 35.7356C38.3164 35.4046 37.6728 34.8989 37.1395 34.2184C36.6245 33.5196 36.3671 32.5818 36.3671 31.4048C36.3671 30.5589 36.597 29.7681 37.0567 29.0325C37.5348 28.2786 38.2061 27.6809 39.0704 27.2395C39.9531 26.7982 40.9553 26.5775 42.0771 26.5775C43.2173 26.5775 44.2011 26.7798 45.0286 27.1844C45.8562 27.5889 46.4998 28.1039 46.9596 28.7291C47.4377 29.336 47.7503 29.9796 47.8974 30.66H47.3457C47.217 30.1267 46.9504 29.5842 46.5458 29.0325C46.1412 28.4809 45.5619 28.0211 44.808 27.6533C44.054 27.2671 43.1437 27.074 42.0771 27.074C41.1392 27.074 40.2749 27.2579 39.4841 27.6257C38.7118 27.9751 38.0865 28.4809 37.6084 29.1429C37.1486 29.7865 36.9188 30.5405 36.9188 31.4048C36.9188 32.4714 37.1578 33.3265 37.636 33.9702C38.1325 34.5954 38.7394 35.0644 39.4566 35.377C40.1738 35.6712 41.13 35.9747 42.3254 36.2873C43.5759 36.6183 44.5689 36.9493 45.3045 37.2803C46.0585 37.593 46.6929 38.0895 47.2078 38.7699C47.7227 39.4319 47.9802 40.3422 47.9802 41.5008C47.9802 42.3099 47.7595 43.0915 47.3182 43.8455C46.8952 44.5994 46.2516 45.2155 45.3872 45.6936C44.5229 46.1534 43.4747 46.3832 42.2426 46.3832Z" fill="black"/>
<path d="M55.3765 46.3832C54.1444 46.3832 53.0686 46.1626 52.1491 45.7212C51.248 45.2799 50.5492 44.7006 50.0527 43.9834C49.5562 43.2478 49.2619 42.457 49.17 41.6111H49.7217C49.8136 42.2548 50.0435 42.8984 50.4113 43.542C50.7975 44.1857 51.3952 44.7374 52.2043 45.1971C53.0318 45.6569 54.0892 45.8867 55.3765 45.8867C56.4064 45.8867 57.3166 45.6936 58.1074 45.3074C58.8982 44.9029 59.505 44.3696 59.928 43.7075C60.3509 43.0455 60.5624 42.3099 60.5624 41.5008C60.5624 40.4526 60.3234 39.625 59.8452 39.0182C59.3671 38.3929 58.7694 37.9332 58.0522 37.6389C57.3534 37.3447 56.4063 37.0413 55.211 36.7286C53.9605 36.3976 52.9583 36.0666 52.2043 35.7356C51.4503 35.4046 50.8067 34.8989 50.2734 34.2184C49.7585 33.5196 49.501 32.5818 49.501 31.4048C49.501 30.5589 49.7309 29.7681 50.1906 29.0325C50.6688 28.2786 51.34 27.6809 52.2043 27.2395C53.087 26.7982 54.0892 26.5775 55.211 26.5775C56.3512 26.5775 57.335 26.7798 58.1626 27.1844C58.9901 27.5889 59.6337 28.1039 60.0935 28.7291C60.5716 29.336 60.8842 29.9796 61.0314 30.66H60.4797C60.3509 30.1267 60.0843 29.5842 59.6797 29.0325C59.2751 28.4809 58.6959 28.0211 57.9419 27.6533C57.1879 27.2671 56.2776 27.074 55.211 27.074C54.2731 27.074 53.4088 27.2579 52.6181 27.6257C51.8457 27.9751 51.2204 28.4809 50.7423 29.1429C50.2826 29.7865 50.0527 30.5405 50.0527 31.4048C50.0527 32.4714 50.2918 33.3265 50.7699 33.9702C51.2664 34.5954 51.8733 35.0644 52.5905 35.377C53.3077 35.6712 54.264 35.9747 55.4593 36.2873C56.7098 36.6183 57.7028 36.9493 58.4384 37.2803C59.1924 37.593 59.8268 38.0895 60.3418 38.7699C60.8567 39.4319 61.1141 40.3422 61.1141 41.5008C61.1141 42.3099 60.8934 43.0915 60.4521 43.8455C60.0291 44.5994 59.3855 45.2155 58.5212 45.6936C57.6569 46.1534 56.6086 46.3832 55.3765 46.3832Z" fill="black"/>
<path d="M73.9446 40.8387H64.3452L62.3039 46.1902H61.6695L68.869 27.3499H69.4207L76.5927 46.1902H75.9583L73.9446 40.8387ZM73.7515 40.3422L69.1449 28.2326L64.5383 40.3422H73.7515Z" fill="black"/>
<path d="M78.6501 26.7706V46.1902H78.0985V26.7706H78.6501Z" fill="black"/>
<path d="M94.8542 46.1902H94.3025L82.248 27.7912V46.1902H81.6963V26.7982H82.248L94.3025 45.1695V26.7982H94.8542V46.1902Z" fill="black"/>
</svg>
